<svg xmlns="http://www.w3.org/2000/svg" width="1808.006" height="979.926" viewBox="0 0 1808.006 979.926">
  <g id="_01" data-name="01" transform="translate(-272.705 -290.037)">
    <path id="パス_1" data-name="パス 1" d="M298.345,807.58h933.049s56.12-88.761-39.611-84.323c-256.74,11.9-138.595-53.218-197.21-93.2-25.234-17.215-84.888,32.405-138.181,13.211C811.474,627.087,792.944,533.99,732.34,533.99c-70.321,0-88.793,112.439-143.783,135.319S474.73,626.816,440.366,638.242c-64.353,21.4-35.506,114.127-79.887,112.884S229.554,753.632,298.345,807.58Z" fill="#e9f2f4"/>
    <path id="パス_2" data-name="パス 2" d="M922.56,1095.146H2060.771s68.462-108.281-48.322-102.864c-313.189,14.517-169.07-64.924-240.569-113.7-30.784-21-103.556,39.527-168.566,16.113-54.8-19.734-77.4-133.3-151.332-133.3-85.781,0-108.313,137.16-175.4,165.072s-138.856-51.839-180.774-37.9c-78.505,26.1-43.313,139.22-97.453,137.708S838.642,1029.337,922.56,1095.146Z" fill="#e9f2f4"/>
    <path id="パス_3" data-name="パス 3" d="M1180.814,533.775h642.971s38.677-61.168-27.3-58.108c-176.923,8.2-95.507-36.674-135.9-64.227-17.388-11.862-58.5,22.33-95.219,9.1-30.954-11.147-43.725-75.3-85.487-75.3-48.459,0-61.189,77.484-99.083,93.25s-78.44-29.283-102.119-21.41c-44.346,14.746-24.467,78.646-55.051,77.791S1133.409,496.6,1180.814,533.775Z" fill="#e9f2f4"/>
    <path id="パス_4" data-name="パス 4" d="M830.055,651.278s-33.231-4.111-17.071,58.8c18.992,73.929-38.9,81.39-60.294,121.9s-54.108,79.422-48.313,126.61,27.558,31.362,22.613,73.9,13.217,108.865,55.755,96.007,133.646,97.969,163.14,41.662c16.928-32.318,143.346-47.447,100.809-85.035s-63.65-62.719-50.789-104.271,50.592-44.315,38.723-93.774-55.614-35.222-64.05-88.038c-9.027-56.514-42.359-112.1-53.319-143.2C909.444,633.652,858.144,600.873,830.055,651.278Z" fill="#1f4275"/>
    <g id="グループ_3" data-name="グループ 3">
      <g id="グループ_1" data-name="グループ 1">
        <path id="パス_5" data-name="パス 5" d="M1509.5,846.39c-16.382-7.266-29.514,3.955-38.28,17.181s-18.361,52.472,1.806,73.936,3.487,22.738,3.456,41.611c-.044,25.744,24.052,9.713,28.288,31.651s-30.04,36.117-16.649,63.156,35.789,22.554,44.509,40.636c3.775,7.823,9,19.862,9,19.862l26.175-6.938s11.929-14,16.041-42.037-13.281-29.978-19.475-48.726,13.075-26.815,11.134-53.464-9.726-25.593-27.391-44.8-24.87-25.555-20.81-46.293S1524.7,853.124,1509.5,846.39Z" fill="#addae8"/>
        <path id="パス_6" data-name="パス 6" d="M1499.654,872.694s-14.533,48.657,8.175,78.489,41.658,27.382,31.821,61.654-15.7,44.461-1.017,62.3,10.787,57.218,10.787,57.218l10.994-2.912s2.33-40.744-13.959-62.494,12.41-54.891,6.805-79.985-31.691-25.54-46.377-54.993S1499.654,872.694,1499.654,872.694Z" fill="#d7e9f4"/>
      </g>
      <g id="グループ_2" data-name="グループ 2">
        <path id="パス_7" data-name="パス 7" d="M1692.789,864.644c-10.074-15.839-26.694-14.261-40.674-8.4s-41.707,33-35.588,62.987-8.492,21.116-17.99,36.9c-12.953,21.528,15.272,22.456,7.808,43.345s-43.279,12.36-45.63,42.973,18.649,40.2,16.879,60.531c-.767,8.8-2.435,21.991-2.435,21.991l25.4,9.777s17.019-4.621,34.526-25.652,3.921-33.008,8.144-52.4,24.4-14.668,36.152-38.142,4.694-27.221-.453-53.827-8-36.207,5.8-51.158S1702.135,879.336,1692.789,864.644Z" fill="#d7e9f4"/>
        <path id="パス_8" data-name="パス 8" d="M1671.346,880.808s-36.588,32.091-32.542,70.6,21.145,47.735-4.292,70.573-35.456,27.884-32.113,51.564-19.679,54.338-19.679,54.338l10.668,4.107s22.4-32.726,19.67-60.642,37.932-38.572,45.835-62.926-13.722-40.256-11.244-73.665S1671.346,880.808,1671.346,880.808Z" fill="#addae8"/>
      </g>
      <path id="パス_9" data-name="パス 9" d="M1534.651,1219.181c0,9.427,5.931,17.072,13.246,17.072h54.059c7.316,0,13.245-7.645,13.245-17.072l10.456-78.838c0-9.428-5.928-17.069-13.246-17.069h-74.274c-7.317,0-13.247,7.641-13.247,17.069Z" fill="#d8e1e5"/>
    </g>
    <g id="グループ_4" data-name="グループ 4">
      <path id="パス_10" data-name="パス 10" d="M1368.44,1197.892c0,8.716-5.711,15.785-12.755,15.785H1166.379c-7.047,0-12.756-7.069-12.756-15.785V872.262c0-8.72,5.709-15.784,12.756-15.784h189.306c7.044,0,12.755,7.064,12.755,15.784Z" fill="#addae8"/>
      <path id="パス_11" data-name="パス 11" d="M1358.088,968.983c0,2.181-5.162,3.949-11.528,3.949H1175.5c-6.367,0-11.527-1.768-11.527-3.949V887.561c0-2.179,5.16-3.946,11.527-3.946H1346.56c6.366,0,11.528,1.767,11.528,3.946Z" fill="#d7e9f4"/>
      <path id="パス_12" data-name="パス 12" d="M1358.088,1191.468c0,2.189-5.162,3.965-11.528,3.965H1175.5c-6.367,0-11.527-1.776-11.527-3.965v-81.836c0-2.192,5.16-3.967,11.527-3.967H1346.56c6.366,0,11.528,1.775,11.528,3.967Z" fill="#d7e9f4"/>
      <path id="パス_13" data-name="パス 13" d="M1358.088,1081.095c0,2.189-5.162,3.966-11.528,3.966H1175.5c-6.367,0-11.527-1.777-11.527-3.966V999.261c0-2.191,5.16-3.969,11.527-3.969H1346.56c6.366,0,11.528,1.778,11.528,3.969Z" fill="#d7e9f4"/>
      <path id="パス_14" data-name="パス 14" d="M1304.7,908.108a5.571,5.571,0,0,1-5.572,5.571h-76.2a5.57,5.57,0,0,1-5.571-5.571h0a5.57,5.57,0,0,1,5.571-5.573h76.2a5.571,5.571,0,0,1,5.572,5.573Z" fill="#addae8"/>
      <path id="パス_15" data-name="パス 15" d="M1304.7,1015.5a5.572,5.572,0,0,1-5.572,5.572h-76.2a5.571,5.571,0,0,1-5.571-5.572h0a5.571,5.571,0,0,1,5.571-5.575h76.2a5.572,5.572,0,0,1,5.572,5.575Z" fill="#addae8"/>
      <path id="パス_16" data-name="パス 16" d="M1304.7,1127.8a5.573,5.573,0,0,1-5.572,5.576h-76.2a5.572,5.572,0,0,1-5.571-5.576h0a5.571,5.571,0,0,1,5.571-5.571h76.2a5.572,5.572,0,0,1,5.572,5.571Z" fill="#addae8"/>
    </g>
    <g id="グループ_5" data-name="グループ 5">
      <path id="パス_17" data-name="パス 17" d="M767.013,1253.905c-.527,2.27.644,4.41,2.617,4.768h0c1.971.361,4-1.19,4.529-3.463L821.5,1072.864c.534-2.275-5.281-5.256-7.255-5.617h0c-1.971-.363-8.639.338-9.17,2.613Z" fill="#d39040"/>
      <path id="パス_18" data-name="パス 18" d="M819.5,1221.159c-.529,2.266.642,4.4,2.617,4.762h0c1.968.359,4-1.188,4.527-3.459l47.337-182.35c.534-2.271-5.279-5.256-7.253-5.617h0c-1.97-.361-8.641.338-9.173,2.611Z" fill="#d39040"/>
      <path id="パス_19" data-name="パス 19" d="M857.021,1262.3c-.524,2.269.644,4.4,2.62,4.764h0c1.968.363,4-1.186,4.529-3.46l47.338-182.349c.532-2.274-5.281-5.258-7.256-5.619h0c-1.973-.36-8.64.342-9.171,2.615Z" fill="#d39040"/>
      <path id="パス_20" data-name="パス 20" d="M1018.465,1227.046c1.118,2.039,3.416,2.853,5.126,1.8h0c1.71-1.043,2.191-3.551,1.069-5.6l-86.273-167.477c-1.119-2.052-7.442-.4-9.156.649h0c-1.71,1.043-6.213,6.011-5.093,8.06Z" fill="#d39040"/>
      <path id="パス_21" data-name="パス 21" d="M740.744,845.848c-57.933,27.454-37.707,258.762,98.47,284.342s222.405-16.994,234.249-84.97-159.132-11.971-161.922-101.526S853.136,792.58,740.744,845.848Z" fill="#31afac"/>
      <path id="パス_22" data-name="パス 22" d="M774.117,836.651c-45.166,22.664-9.9,197.8,96.263,218.914s166.963,9.313,169.663-3.312c11.891-55.6-134.094-36.365-132.777-134.834C908.258,843.474,861.733,792.69,774.117,836.651Z" fill="#349393"/>
    </g>
    <g id="グループ_6" data-name="グループ 6">
      <path id="長方形_1" data-name="長方形 1" d="M16.75,0h252.5A16.753,16.753,0,0,1,286,16.753V108.88a16.753,16.753,0,0,1-16.753,16.753H16.752A16.752,16.752,0,0,1,0,108.882V16.75A16.75,16.75,0,0,1,16.75,0Z" transform="translate(537.023 507.513)" fill="#addae8"/>
      <path id="パス_23" data-name="パス 23" d="M768.587,627.371l13.847,42.195,10.559-42.195Z" fill="#addae8"/>
      <path id="パス_24" data-name="パス 24" d="M803.151,540.514a7.052,7.052,0,0,1-7.053,7.053H575.681a7.053,7.053,0,0,1-7.054-7.053h0a7.054,7.054,0,0,1,7.054-7.053H796.1a7.053,7.053,0,0,1,7.053,7.053Z" fill="#fff"/>
      <path id="パス_25" data-name="パス 25" d="M803.151,570.33a7.054,7.054,0,0,1-7.053,7.055H575.681a7.055,7.055,0,0,1-7.054-7.055h0a7.052,7.052,0,0,1,7.054-7.052H796.1a7.051,7.051,0,0,1,7.053,7.052Z" fill="#fff"/>
      <path id="パス_26" data-name="パス 26" d="M685.889,596.78c0,3.9-1.578,7.052-3.527,7.052H572.153c-1.948,0-3.526-3.155-3.526-7.052h0c0-3.9,1.578-7.053,3.526-7.053H682.362c1.949,0,3.527,3.157,3.527,7.053Z" fill="#fff"/>
    </g>
    <g id="グループ_7" data-name="グループ 7">
      <path id="パス_27" data-name="パス 27" d="M1497.606,421.31l13.848,42.193,10.557-42.193Z" fill="#addae8"/>
      <path id="長方形_2" data-name="長方形 2" d="M16.75,0H123.272a16.751,16.751,0,0,1,16.751,16.751V100.51a16.752,16.752,0,0,1-16.752,16.752H16.752A16.752,16.752,0,0,1,0,100.51V16.75A16.75,16.75,0,0,1,16.75,0Z" transform="translate(1403.604 310.532)" fill="#addae8"/>
      <path id="パス_28" data-name="パス 28" d="M1444.633,369.163a9.608,9.608,0,1,1-9.608-9.607A9.609,9.609,0,0,1,1444.633,369.163Z" fill="#fff"/>
      <path id="パス_29" data-name="パス 29" d="M1483.223,369.163a9.607,9.607,0,1,1-9.608-9.607A9.609,9.609,0,0,1,1483.223,369.163Z" fill="#fff"/>
      <path id="パス_30" data-name="パス 30" d="M1519.414,369.163a9.606,9.606,0,1,1-9.606-9.607A9.608,9.608,0,0,1,1519.414,369.163Z" fill="#fff"/>
    </g>
    <g id="グループ_10" data-name="グループ 10">
      <g id="グループ_8" data-name="グループ 8">
        <path id="パス_31" data-name="パス 31" d="M745.795,873.366c16.384-7.261,29.511,3.957,38.276,17.19s18.366,52.466-1.806,73.931-3.484,22.739-3.452,41.614c.044,25.742-24.055,9.709-28.287,31.646s30.038,36.119,16.646,63.158-35.788,22.555-44.507,40.633c-3.776,7.824-9,19.865-9,19.865l-26.177-6.935s-11.928-14-16.039-42.039,13.282-29.979,19.475-48.731-13.075-26.808-11.134-53.462,9.728-25.592,27.389-44.8S732.053,939.878,728,919.144,730.6,880.106,745.795,873.366Z" fill="#addae8"/>
        <path id="パス_32" data-name="パス 32" d="M755.641,899.671s14.534,48.662-8.172,78.492-41.659,27.382-31.823,61.656,15.7,44.459,1.017,62.3-10.786,57.219-10.786,57.219l-10.995-2.912s-2.329-40.742,13.959-62.494-12.408-54.889-6.8-79.986,31.688-25.54,46.377-54.991S755.641,899.671,755.641,899.671Z" fill="#d7e9f4"/>
      </g>
      <g id="グループ_9" data-name="グループ 9">
        <path id="パス_33" data-name="パス 33" d="M562.509,891.624c10.072-15.838,26.693-14.262,40.674-8.4s41.706,33,35.587,62.988,8.491,21.113,17.988,36.9c12.954,21.532-15.269,22.457-7.8,43.346s43.275,12.361,45.628,42.975-18.648,40.2-16.879,60.531c.767,8.8,2.433,21.99,2.433,21.99l-25.4,9.778s-17.013-4.625-34.524-25.651-3.921-33.012-8.144-52.4-24.4-14.666-36.151-38.141-4.7-27.222.454-53.826,8-36.209-5.8-51.156S553.161,906.316,562.509,891.624Z" fill="#d7e9f4"/>
        <path id="パス_34" data-name="パス 34" d="M583.952,907.791s36.587,32.087,32.54,70.593-21.141,47.732,4.293,70.572,35.455,27.883,32.113,51.566,19.679,54.336,19.679,54.336l-10.666,4.108s-22.4-32.727-19.672-60.645-37.932-38.572-45.831-62.925,13.718-40.256,11.241-73.667S583.952,907.791,583.952,907.791Z" fill="#addae8"/>
      </g>
      <path id="パス_35" data-name="パス 35" d="M720.645,1246.163c0,9.426-5.928,17.068-13.243,17.068H653.34c-7.314,0-13.244-7.642-13.244-17.068l-10.457-78.838c0-9.431,5.929-17.072,13.244-17.072h74.279c7.316,0,13.245,7.641,13.245,17.072Z" fill="#d8e1e5"/>
    </g>
    <g id="グループ_12" data-name="グループ 12">
      <path id="パス_36" data-name="パス 36" d="M974.165,1161.772s-20.712,39.854-28.265,65.5c-1.381,4.692-6.522,20.67,4.322,23.436,13.1,3.346,42.483,4.984,22.814,10.426-15.665,4.33-48.031,6.943-52.28-2.952s14.18-96.8,14.18-96.8Z" fill="#9c95c6"/>
      <path id="パス_37" data-name="パス 37" d="M967.731,1253.735s-7.792,6.914-17.326,5.717c-12.062-1.516-31.47-5.891-31.47-5.891s1.07,12.167,3.632,13.749c5.5,3.4,54.075,4.32,65.3-2.034S967.731,1253.735,967.731,1253.735Z" fill="#e56761"/>
      <path id="パス_38" data-name="パス 38" d="M1066.66,1156.386s-20.716,39.855-28.265,65.5c-1.383,4.691-6.526,20.67,4.318,23.437,13.1,3.342,42.487,4.983,22.815,10.424-15.664,4.332-48.028,6.943-52.28-2.951s14.181-96.8,14.181-96.8Z" fill="#9c95c6"/>
      <path id="パス_39" data-name="パス 39" d="M1060.226,1248.349s-7.795,6.916-17.325,5.716c-12.063-1.515-31.472-5.89-31.472-5.89s1.072,12.168,3.631,13.75c5.505,3.4,54.077,4.314,65.3-2.037S1060.226,1248.349,1060.226,1248.349Z" fill="#e56761"/>
      <path id="パス_40" data-name="パス 40" d="M951.216,949.532s5.182,28.505,25.889,29.631,120.69,2.229,138.2,29.8c18.836,29.667-65.825,201.321-65.825,201.321h-35.366s.863-90.812,24.914-124.627c28.078-39.48-127.694-14.355-176.684-30.777-74.289-24.895-33.28-105.764-33.28-105.764Z" fill="#d85d5d"/>
      <path id="パス_41" data-name="パス 41" d="M936.711,958.356s-6.1,30.137,14.6,31.261,85.379-3.452,102.885,24.123c18.837,29.665-98.7,196.546-98.7,196.546l-31.844-.594s16.648-96.822,40.681-127.107c22.615-28.494-59.009-8.2-109.419-19.545-94.908-21.361-71.973-111.992-71.973-111.992Z" fill="#e56761"/>
      <path id="パス_42" data-name="パス 42" d="M880.857,719.762s1.5,21.2,14.218,22.338c13.3,1.2,38.9,5.1,38.9,5.1s-30.823,27.3-60.96,27.365c-31.356.07-62.972-32.46-62.972-32.46s42.577,6.746,47.212-4.213a93.6,93.6,0,0,0,5.9-18.125Z" fill="#9c95c6"/>
      <path id="パス_43" data-name="パス 43" d="M908.891,690.295s.784,36.71-16.732,38.1c-10.07.8-35.884-7.639-41.173-28.431-4.371-.48-13.906,2.394-16.555-5.119-3.431-9.736,4.836-16.817,10.9-11.064-5.193-44.321,30.851-47.133,46.347-38.586C908.894,654.691,907.595,672.874,908.891,690.295Z" fill="#b0a4dd"/>
      <path id="パス_44" data-name="パス 44" d="M918.717,740.868s-18.915,33.109-46.711,29.211-36.893-29.211-36.893-29.211-26.647-4.094-28.923,6.293S739.247,893.45,778.761,935.006c5.161,5.429-2.909,24.415,2.638,29.043,20.78,17.349,153.734,20.177,175.49,6.329,14.483-9.214-4.153-29.545,7.54-35.372,40.152-20.011,2.653-167.386-12.132-181.725S918.717,740.868,918.717,740.868Z" fill="#e5be00"/>
      <path id="パス_45" data-name="パス 45" d="M858.847,663.2c6.081-7.77,38.148-6.341,53.846-9.355,23.721-4.547,11.72-41.588-2.6-43.536s-9.245,16.665-19.17,17.22c-13.321.746-26.075-.51-37.021,8.181-7.849,6.226-20.278,11.824-15.232,37.579.864,4.41,12.66,18.2,12.66,18.2S851.726,672.295,858.847,663.2Z" fill="#1f4275"/>
      <path id="パス_46" data-name="パス 46" d="M937.16,757.188C935,760.5,982.913,911.6,1054.445,887.911c61.7-20.429,82.96-47.773,82.96-47.773l-15.15-20.592s-70.174,27.566-90.131,7.278C1011.883,806.242,947.709,741.01,937.16,757.188Z" fill="#9c95c6"/>
      <path id="パス_47" data-name="パス 47" d="M935.947,754.663c-5.294,4.287,45.344,161.733,119.7,135.781,38.383-13.4,60.519-27.693,60.519-27.693l-7.219-40.565s-57.375,15.918-71.417,3.472C1014.946,805.642,955.623,738.727,935.947,754.663Z" fill="#eac906"/>
      <path id="パス_48" data-name="パス 48" d="M812.175,744.986c-6.993-7.362-113.9,123.111-60.673,155.1,55.7,33.477,129.776,23.816,129.776,23.816l8.121-22.828s-102.56-22.187-101.812-50.638C788.349,821.578,822.16,755.5,812.175,744.986Z" fill="#9c95c6"/>
      <path id="パス_49" data-name="パス 49" d="M814.2,744.119c-5.262-12.848-126.321,114.648-67.367,166.868,31.568,27.959,118.64,19.077,118.64,19.077L879.982,896.2s-82.57-20.457-84.216-46.65C793.877,819.435,822.151,763.54,814.2,744.119Z" fill="#eac906"/>
      <path id="パス_50" data-name="パス 50" d="M889.4,901.071s23.6-8.84,26.807,1.157,32.562,3,33.232,9-26.166,4.547-26.166,4.547-6.73,18.114-17.288,19.633-26-11.486-26-11.486Z" fill="#9c95c6"/>
      <path id="パス_51" data-name="パス 51" d="M1126.2,814.095c9.972-16.322,20.569-73.89,25.845-72.02s2.637,26.657-2.637,39.316-1.585,30.594,2.637,37.451,20.728,14.128,8.966,18.6c-23.608,8.968-31.513,10.636-31.513,10.636l-9.9-27.528S1124.026,817.656,1126.2,814.095Z" fill="#9c95c6"/>
      <g id="グループ_11" data-name="グループ 11">
        <path id="パス_52" data-name="パス 52" d="M1132.588,820.775a1.391,1.391,0,0,0,.862,1.77l42.571,14.813a1.389,1.389,0,0,0,1.774-.853l31.66-90.983a1.39,1.39,0,0,0-.863-1.771l-42.569-14.815a1.394,1.394,0,0,0-1.777.856Z" fill="#1f4275"/>
        <path id="パス_53" data-name="パス 53" d="M1138.464,815.681a1.185,1.185,0,0,0,.713,1.516l35.676,12.412a1.187,1.187,0,0,0,1.5-.744l27.225-78.249a1.183,1.183,0,0,0-.714-1.516l-35.674-12.412a1.187,1.187,0,0,0-1.5.744Z" fill="#fff"/>
        <path id="パス_54" data-name="パス 54" d="M1190.512,772.063c.275.331-.164,1.151-.984,1.834l-4.451,3.7c-.815.679-1.7.966-1.978.635l-17.847-21.454c-.274-.33.166-1.15.983-1.83l4.45-3.7c.819-.681,1.7-.964,1.983-.634Z" fill="#d7e9f4"/>
        <path id="パス_55" data-name="パス 55" d="M1183.2,789.492c.275.328-.084,1.082-.8,1.678l-3.9,3.246c-.718.595-1.522.812-1.8.482l-17.844-21.453c-.277-.332.085-1.084.8-1.679l3.9-3.246c.722-.6,1.523-.812,1.8-.482Z" fill="#d7e9f4"/>
        <path id="パス_56" data-name="パス 56" d="M1177.344,807.16c.276.33-.083,1.082-.8,1.679l-3.9,3.247c-.72.6-1.526.811-1.8.481l-17.848-21.452c-.276-.33.085-1.084.8-1.68l3.9-3.245c.718-.6,1.524-.813,1.8-.483Z" fill="#d7e9f4"/>
      </g>
    </g>
    <g id="グループ_13" data-name="グループ 13">
      <path id="パス_57" data-name="パス 57" d="M1385.951,1135.649s7.783,62.69,10.809,83.461c.7,4.838,2.434,14.069-8.112,17.805-12.743,4.52-43.457,8.309-23.374,11.943,15.995,2.9,48.464,2.559,51.8-7.675s6.985-105.534,6.985-105.534Z" fill="#9c95c6"/>
      <path id="パス_58" data-name="パス 58" d="M1369.266,1240.116c18.455-2.131,23.992-8.974,26.489-10.035,4.021,2.547,17.06,4.35,22.966,0,3.387.6-.219,18.543-2.624,20.35-5.173,3.888-53.462,9.2-65.217,3.892S1354.842,1241.778,1369.266,1240.116Z" fill="#1f4275"/>
      <path id="パス_59" data-name="パス 59" d="M1541.545,808.737s-20.159,83.69-57.346,163.847-57.345,235.345-57.345,235.345l-40.463-1.674s-10.4-160.332-10.4-233.671,15.4-167.439,15.4-167.439Z" fill="#196991"/>
      <path id="パス_60" data-name="パス 60" d="M1472.243,1144.856s7.783,62.692,10.806,83.463c.707,4.84,2.435,14.069-8.109,17.805-12.743,4.518-43.456,8.309-23.375,11.941,16,2.9,48.464,2.563,51.8-7.673s6.984-105.536,6.984-105.536Z" fill="#9c95c6"/>
      <path id="パス_61" data-name="パス 61" d="M1564.06,807.76s18.093,97.747-19.092,177.9-31.7,239.8-31.7,239.8H1473.87s-33.229-167.266-33.229-240.608-6.149-162.875-6.149-162.875Z" fill="#3392cc"/>
      <path id="パス_62" data-name="パス 62" d="M1465.222,570.311s-1.5,21.2-14.215,22.341c-13.3,1.194-38.9,5.092-38.9,5.092s30.818,27.3,60.958,27.366c31.358.07,62.969-32.458,62.969-32.458s-42.572,6.744-47.21-4.215a93.5,93.5,0,0,1-5.9-18.126Z" fill="#8a86b2"/>
      <path id="パス_63" data-name="パス 63" d="M1444.879,540.847s-.781,36.709,16.73,38.1c10.073.8,35.885-7.64,41.177-28.43,4.367-.48,13.9,2.4,16.556-5.121,3.43-9.734-4.836-16.813-10.906-11.063,5.2-44.322-30.852-47.132-46.346-38.584C1444.875,505.242,1446.178,523.426,1444.879,540.847Z" fill="#9c95c6"/>
      <path id="パス_64" data-name="パス 64" d="M1451.186,588.586s15.909,22.475,23.306,21.593c8.16-.975,17.748-21.593,17.748-21.593s45.375-1.263,47.65,9.124,66.94,146.29,27.426,187.849c-5.16,5.425,2.911,24.414-2.634,29.043-20.784,17.347-153.734,20.174-175.493,6.328-14.482-9.215,4.154-29.545-7.539-35.371C1341.5,765.545,1379,618.171,1393.783,603.83S1451.186,588.586,1451.186,588.586Z" fill="#6fc6a9"/>
      <path id="パス_65" data-name="パス 65" d="M1494.924,513.748c-6.081-7.769-80.553,6.071-63.71-9.346,13.661-12.5-6.638-4.369-6.654-12.5-.025-11.7,14.32-4.43,12.837-12.827-2.22-12.575,2.325-15.355,25.626-6.479,6.232,2.376-1.816-16.38,5.917-17.013s30,17.976,37.909,23.115c22.811,14.827,21.174,50.548,7.845,53.783-12.34,3-12.254,9.553-12.254,9.553S1502.045,522.848,1494.924,513.748Z" fill="#1f4275"/>
      <path id="パス_66" data-name="パス 66" d="M1416.908,596.023c1.994,3.628-59.58,180.48-132.216,158.873-62.646-18.633-82.667-48.325-82.667-48.325l17.366-24.763s70.918,26.155,93.264,1.362C1335.324,658.017,1407.182,578.3,1416.908,596.023Z" fill="#9c95c6"/>
      <path id="パス_67" data-name="パス 67" d="M1416.908,596.023c12.477,32.427-41.42,132.671-56.38,132.014-25.148-11.28-51.037-57.369-51.037-57.369S1407.748,572.213,1416.908,596.023Z" fill="#addbcb"/>
      <path id="パス_68" data-name="パス 68" d="M1219.391,681.808s-28.852-14.641-36.531-12.935-13.208,12.072-20.706,10.722c-13.9-2.511-21.04-19.477-24.45-10.808s17.6,29.669,31.247,32.779,19.6-5.634,24.595-2.2a78.159,78.159,0,0,1,9.764,8.375Z" fill="#9c95c6"/>
      <path id="パス_69" data-name="パス 69" d="M1669.876,881.493a1.257,1.257,0,0,1-1.173,1.326H1459.938a1.256,1.256,0,0,1-1.17-1.326V728.8a1.257,1.257,0,0,1,1.17-1.327H1668.7a1.258,1.258,0,0,1,1.173,1.327Z" fill="#d8e1e5"/>
      <path id="パス_70" data-name="パス 70" d="M1543.447,596.544c9.986-1.87,154.084,103.976,108.568,174.173-39.259,60.549-66.553,79.035-66.553,79.035l-18.421-18.667s46.912-81.355,34.016-113.017C1587.977,685.953,1528.623,599.324,1543.447,596.544Z" fill="#9c95c6"/>
      <path id="パス_71" data-name="パス 71" d="M1579.115,862.456s-2.3,19.218-9.115,27-24.781,2.8-36.725-3.633c-6.179-3.33,5.686-22.027,5.686-22.027s-21.851,1.019-18.8-2.48c6.076-6.967,30.931-10.067,37.36-16.436,4.663-4.621,10.577-15.671,10.577-15.671l22.245,16.7S1580.861,854.478,1579.115,862.456Z" fill="#9c95c6"/>
      <path id="パス_72" data-name="パス 72" d="M1456.994,1247.228c18.456-2.129,23.994-8.977,26.49-10.038,4.023,2.547,17.061,4.348,22.963,0,3.389.606-.216,18.545-2.62,20.352-5.174,3.885-53.464,9.2-65.219,3.891S1442.57,1248.89,1456.994,1247.228Z" fill="#1f4275"/>
      <path id="パス_73" data-name="パス 73" d="M1524.858,593.188c34.009-7.1,125.953,67.254,122.9,81.912-15.18,23.008-64.83,41.15-64.83,41.15S1499.883,598.4,1524.858,593.188Z" fill="#addbcb"/>
      <path id="パス_74" data-name="パス 74" d="M1439.722,589.34l14.7,39.145,17.448-16.828,20,15.533,14.793-38.456-14.424-.148-20.37,21.135-20.684-21.135Z" fill="#addbcb"/>
    </g>
    <g id="グループ_15" data-name="グループ 15">
      <g id="グループ_14" data-name="グループ 14">
        <path id="長方形_3" data-name="長方形 3" d="M15.825,0h461.2a15.824,15.824,0,0,1,15.824,15.824v126.6a15.826,15.826,0,0,1-15.826,15.826H15.824A15.824,15.824,0,0,1,0,142.43V15.825A15.825,15.825,0,0,1,15.825,0Z" transform="translate(709.766 290.037)" fill="#dae9ea"/>
        <path id="パス_75" data-name="パス 75" d="M852.934,349.488H755.743c-2.907,0-5.262-3.29-5.262-7.349s2.355-7.347,5.262-7.347h97.191c2.908,0,5.265,3.291,5.265,7.347S855.842,349.488,852.934,349.488Z" fill="#9bc7ce"/>
        <path id="パス_76" data-name="パス 76" d="M903.63,395.588h-147c-2.908,0-5.263-3.29-5.263-7.348s2.355-7.347,5.263-7.347h147c2.908,0,5.264,3.29,5.264,7.347S906.538,395.588,903.63,395.588Z" fill="#9bc7ce"/>
      </g>
      <path id="長方形_4" data-name="長方形 4" d="M3.957,0h41.7a3.957,3.957,0,0,1,3.957,3.957v101.93a3.957,3.957,0,0,1-3.957,3.957H3.955A3.955,3.955,0,0,1,0,105.889V3.957A3.957,3.957,0,0,1,3.957,0Z" transform="translate(962.223 314.655)" fill="#9bc7ce"/>
      <path id="長方形_5" data-name="長方形 5" d="M3.957,0H45.663a3.956,3.956,0,0,1,3.956,3.956V105.887a3.957,3.957,0,0,1-3.957,3.957H3.955A3.955,3.955,0,0,1,0,105.889V3.957A3.957,3.957,0,0,1,3.957,0Z" transform="translate(1036.831 314.655)" fill="#9bc7ce"/>
      <path id="長方形_6" data-name="長方形 6" d="M3.957,0H45.662a3.956,3.956,0,0,1,3.956,3.956V105.887a3.957,3.957,0,0,1-3.957,3.957H3.954A3.954,3.954,0,0,1,0,105.89V3.957A3.957,3.957,0,0,1,3.957,0Z" transform="translate(1109.741 314.655)" fill="#9bc7ce"/>
      <path id="パス_77" data-name="パス 77" d="M1012.124,422.523c0,1.093-1.771,1.976-3.956,1.976H966.461c-2.185,0-3.956-.883-3.956-1.976V371.556c0-1.093,1.771-1.978,3.956-1.978h41.707c2.185,0,3.956.885,3.956,1.978Z" fill="#c1dde0"/>
      <path id="パス_78" data-name="パス 78" d="M1086.733,421.5c0,1.656-1.771,3-3.958,3h-41.7c-2.186,0-3.958-1.342-3.958-3V344.264c0-1.655,1.772-3,3.958-3h41.7c2.187,0,3.958,1.342,3.958,3Z" fill="#c1dde0"/>
      <path id="パス_79" data-name="パス 79" d="M1159.643,423.184c0,.727-1.772,1.315-3.957,1.315h-41.7c-2.187,0-3.957-.588-3.957-1.315v-33.9c0-.726,1.77-1.317,3.957-1.317h41.7c2.185,0,3.957.591,3.957,1.317Z" fill="#c1dde0"/>
      <path id="パス_80" data-name="パス 80" d="M968.431,373.139c57.651,3.724,71.969-55.43,96.182-53.407,33.709,2.815,40.973,60.9,86.563,57.51" fill="none" stroke="#f6f6f6" stroke-linecap="round" stroke-linejoin="round" stroke-width="9"/>
      <path id="パス_81" data-name="パス 81" d="M1163.221,377.384a12.048,12.048,0,1,1-12.045-12.428A12.241,12.241,0,0,1,1163.221,377.384Z" fill="#f21919"/>
      <path id="パス_82" data-name="パス 82" d="M831.536,445.335l16.406,36.334,13.9-36.334Z" fill="#dae9ea"/>
    </g>
  </g>
</svg>
